<?xml version="1.0" encoding="UTF-8" standalone="no"?>
<!-- Created with Inkscape (http://www.inkscape.org/) -->

<svg
   xmlns="http://www.w3.org/2000/svg"
   id="svg1061"
   width="500"
   height="200"
   viewBox="150 200 437.5 250">
  <defs
     id="defs1065" />
  <path
     style="fill:none;stroke-width:1.92072332px;stroke-linecap:butt;stroke-linejoin:miter;stroke-opacity:1"
     d="m 441.05188,310.50781 c -26.5099,12.7467 -47.2383,30.52777 -47.20057,54.21088 0.0738,46.28046 68.60256,72.02804 132.13051,72.35431 63.52795,0.32624 128.92918,-24.92095 129.1866,-70.25111 0.043,-7.57542 -2.12577,-14.81819 -5.97913,-21.59767 m -10.14212,-13.25979 c -8.29107,-8.52224 -13.14529,-14.38127 -25.18004,-20.37221"
     id="path5320" />
  <path
     style="fill:none;stroke-width:2.02493358px;stroke-linecap:butt;stroke-linejoin:miter;stroke-opacity:1"
     d="m 466.37333,362.56532 c -6.59632,2.44195 -10.28415,8.5266 -9.3691,15.58099 10.09987,43.78192 126.7975,42.83713 132.15175,1.09607 0.41069,-6.36283 -2.34747,-13.4346 -7.40296,-16.68519"
     id="path5332" />
  <path
     id="path5318"
     style="fill:none;stroke-width:1.92072332px;stroke-linecap:butt;stroke-linejoin:miter;stroke-opacity:1"
     d="m 487.61045,384.17148 c -12.87246,23.29828 87.57887,24.39202 73.33514,1.05286 M 492.14001,228.13947 c -18.12634,3.31956 -54.36046,12.85692 -56.51681,46.14309 -2.17166,33.52252 31.98607,97.9587 51.98725,109.88892 26.07881,14.71208 54.2443,12.80828 73.33514,1.05286 26.38334,-20.33307 55.3586,-76.3524 52.912,-108.8376 -0.0375,-32.81385 -32.53022,-43.05618 -55.09529,-47.87424 -22.56505,-4.81806 -48.49598,-3.69258 -66.62229,-0.37303 z m 114.29114,39.83452 c 1.06244,33.8318 -52.15154,39.99793 -81.69074,40.48266 -29.53921,0.48471 -81.48461,-4.63431 -81.69078,-37.32837 4.8995,-28.48771 53.36662,-37.16724 82.62193,-36.80534 29.25532,0.36191 74.82196,7.76851 80.75959,33.65105 z"
     />
  <path
     style="fill:none;stroke-width:1.92072332px;stroke-linecap:butt;stroke-linejoin:miter;stroke-opacity:1"
     d="m 480.18343,315.29384 c -0.45712,7.36314 -1.93475,14.43726 2.32076,23.13503"
     id="path5326"
     />
  <path
     style="fill:none;stroke-width:1.92072332px;stroke-linecap:butt;stroke-linejoin:miter;stroke-opacity:1"
     d="m 591.11556,311.08745 c 0.10163,8.76326 -4.19847,17.52655 -6.49812,26.28981"
     id="path5328"
     />
  <path
     style="fill:none;stroke-width:1.92072332px;stroke-linecap:butt;stroke-linejoin:miter;stroke-opacity:1"
     d="m 598.07782,307.40687 c 0.57078,10.86646 -4.07612,24.36191 -8.81887,34.70257"
     id="path5330"
     />
  <path
     style="fill:none;stroke-width:1.53761029px;stroke-linecap:butt;stroke-linejoin:miter;stroke-opacity:1"
     d="m 442.38148,272.2784 c 59.48221,-13.99352 103.79974,-14.06361 164.3972,-1.00931"
     id="path5335"
     />
  <path
     style="fill:none;stroke-width:1.92072332px;stroke-linecap:butt;stroke-linejoin:miter;stroke-opacity:1"
     d="m 440.26644,340.53204 c -6.37067,1.64187 -9.23495,6.26279 -10.67548,12.09333"
     id="path5337"
    />
  <path
     style="fill:none;stroke-width:1.92072332px;stroke-linecap:butt;stroke-linejoin:miter;stroke-opacity:1"
     d="m 445.83624,343.16103 c -6.33626,3.11702 -10.67831,7.92836 -12.06793,15.2481"
     id="path5339"
     />
  <path
     style="fill:none;stroke-width:1.92072332px;stroke-linecap:butt;stroke-linejoin:miter;stroke-opacity:1"
     d="m 495.03627,412.04038 c -4.65548,3.38319 -6.45772,7.84378 -7.42641,12.61912"
     id="path5341"
     />
  <path
     style="fill:none;stroke-width:1.92072332px;stroke-linecap:butt;stroke-linejoin:miter;stroke-opacity:1"
     d="m 521.49288,415.72095 -0.46414,6.83535"
     id="path5343"
     />
  <path
     style="fill:none;stroke-width:1.92072332px;stroke-linecap:butt;stroke-linejoin:miter;stroke-opacity:1"
     d="m 528.91931,413.61775 c 1.29258,5.96283 0.70219,11.9136 -0.46415,17.8771"
     id="path5345"
     />
  <path
     style="fill:none;stroke-width:1.92072332px;stroke-linecap:butt;stroke-linejoin:miter;stroke-opacity:1"
     d="m 553.51931,416.24674 c 1.12886,1.47356 2.38615,2.65608 2.32076,6.83535"
     id="path5347"
     />
  <path
     style="fill:none;stroke-width:1.92072332px;stroke-linecap:butt;stroke-linejoin:miter;stroke-opacity:1"
     d="m 567.908,318.44861 c 0.20185,6.41897 -0.6985,12.70373 -3.00048,17.72308"
     id="path5349"
     />
  <path
     style="fill:none;stroke-width:1.92072332px;stroke-linecap:butt;stroke-linejoin:miter;stroke-opacity:1"
     d="m 561.40988,320.55178 c 0.49955,3.78157 0.0107,8.02126 -1.14388,9.52814"
     id="path5351"
     />
  <path
     style="fill:none;stroke-width:1.92072332px;stroke-linecap:butt;stroke-linejoin:miter;stroke-opacity:1"
     d="m 582.57563,361.25708 c 0,0 14.57837,-5.56884 26.64184,-3.89953 12.06346,1.66933 30.58979,-4.18699 39.97182,-12.13333 9.38201,-7.94635 13.90869,-15.56668 13.40554,-26.24981 -5.0679,-28.49035 -26.96128,-32.25471 -49.20001,-28.91881"
     id="path5353"
     />
  <path
     style="fill:none;stroke-width:1.92072332px;stroke-linecap:butt;stroke-linejoin:miter;stroke-opacity:1"
     d="m 605.50424,320.02599 c 8.55709,-3.3088 7.79966,-16.38397 25.99247,-13.14491 16.52946,4.27839 17.58733,16.30993 7.55046,25.08335 -5.20804,3.20142 -40.19234,19.20947 -40.96935,3.83546"
     id="path5355"
     />
  <path
     style="fill:none;stroke-width:1.92072332px;stroke-linecap:butt;stroke-linejoin:miter;stroke-opacity:1"
     d="m 649.00707,303.52102 c 4.88139,6.06726 10.0645,12.01025 5.57949,21.93585"
     id="path5357"
     />
  <path
     style="fill:none;stroke-width:1.92072332px;stroke-linecap:butt;stroke-linejoin:miter;stroke-opacity:1"
     d="m 435.67421,273.40569 c 4.2327,57.27335 174.39329,50.71674 178.18338,2.98105"
     id="path5359"
     />
  <path
     style="fill:none;stroke-width:1px;stroke-linecap:butt;stroke-linejoin:miter;stroke-opacity:1"
     d="m 465.58473,299.95973 c 0,0 -2.96098,-23.98549 -19.87144,-14.94985 -16.91046,9.03564 1.52462,76.46405 -9.22761,92.06232 -14.03288,23.52079 -25.11512,-0.56069 -37.82876,-1.45496 -27.43932,7.96311 -51.88359,35.64332 -80.02237,39.28371 -21.85756,2.25375 -66.45523,-39.63063 -66.45523,-39.63063"
     id="path5361"
     />
  <path class="button-svg"
     style="fill:none;stroke-width:1px;stroke-linecap:butt;stroke-linejoin:miter;stroke-opacity:1"
     d="m 260.2097,395.26693 0.3513,-37.09645 -6.51285,-7.51057 -84.87056,-4.62255 -9.22593,9.59833 -0.51781,41.3303 8.67187,7.98313 83.57325,-4.36013 z"
     id="path5365"
     />
  <path
     style="fill:none;stroke-width:1px;stroke-linecap:butt;stroke-linejoin:miter;stroke-opacity:1"
     d="m 252.95389,383.30317 -0.77457,-14.97729"
     id="path5367"
     />
  <path
     style="fill:none;stroke-width:1px;stroke-linecap:butt;stroke-linejoin:miter;stroke-opacity:1"
     d="m 454.67258,262.85845 c 3.61815,-8.08485 16.27219,-13.78714 26.91662,-14.54953"
     id="path5371"
     />
</svg>
