<?xml version="1.0" encoding="UTF-8" standalone="no"?>
<!-- Created with Inkscape (http://www.inkscape.org/) -->

<svg
   xmlns:dc="http://purl.org/dc/elements/1.1/"
   xmlns:cc="http://creativecommons.org/ns#"
   xmlns:rdf="http://www.w3.org/1999/02/22-rdf-syntax-ns#"
   xmlns:svg="http://www.w3.org/2000/svg"
   xmlns="http://www.w3.org/2000/svg"
   xmlns:sodipodi="http://sodipodi.sourceforge.net/DTD/sodipodi-0.dtd"
   xmlns:inkscape="http://www.inkscape.org/namespaces/inkscape"
   width="250px"
   height="100px"
   viewBox="0 0 297 210"
   version="1.1"
   id="svg8"
   inkscape:version="0.92.2 5c3e80d, 2017-08-06"
   sodipodi:docname="title.svg">
  <defs
     id="defs2" />
  <g>
    <path
       style="stroke-width:1;transform:translate(0px, -100px);"
       d="m 101.347,234.84456 c -0.14939,-0.27913 -0.47314,-1.20187 -0.71946,-2.05052 -0.39174,-1.34972 -0.47035,-3.74687 -0.62753,-19.13779 -0.109651,-10.73645 -0.298497,-18.47142 -0.484483,-19.84375 -0.389189,-2.87173 -1.047462,-7.16023 -1.360525,-8.86354 -0.133734,-0.7276 -0.369147,-2.27542 -0.523145,-3.43958 -0.356256,-2.6932 -0.411882,-2.83266 -1.089149,-2.73054 -1.941677,0.29278 -7.38364,14.11453 -8.835969,22.442 -0.241102,1.38244 -0.564378,2.81119 -0.718389,3.175 -0.181848,0.42956 -0.263266,3.81521 -0.232235,9.65729 0.03834,7.21773 0.130085,9.30961 0.464166,10.58333 0.297984,1.13609 0.375327,2.24352 0.272002,3.89456 -0.125928,2.01223 -0.23962,2.4275 -0.889685,3.24962 -0.677021,0.85621 -0.851956,0.93574 -1.90931,0.86795 -1.501902,-0.0963 -1.99925,-0.75682 -2.546461,-3.38192 -0.741246,-3.55596 -0.975995,-7.87303 -1.09343,-20.10833 -0.176586,-18.39809 0.469265,-33.79916 1.497991,-35.72135 0.694965,-1.29856 2.362954,-0.81318 3.636632,1.05824 0.570362,0.83804 0.595312,1.10591 0.595312,6.39182 0,5.40557 0.17639,6.47944 0.79642,4.84864 1.692026,-4.45037 6.387549,-10.63409 8.167534,-10.75615 2.077,-0.14242 3.149759,0.22139 5.138274,1.74259 1.96973,1.50684 2.81906,3.67045 3.35333,8.5423 0.17247,1.57274 0.47905,3.57391 0.68128,4.44703 0.43093,1.86051 0.60337,8.86715 0.70852,28.78827 l 0.0724,13.70702 -0.58827,0.44819 c -0.32354,0.2465 -0.71642,0.81873 -0.87306,1.27161 -0.45358,1.3114 -2.35862,1.91597 -2.89271,0.91801 z m 113.83558,-0.86584 c -1.37388,-0.70124 -1.57015,-1.206 -2.0894,-5.37351 -0.33293,-2.67202 -0.39486,-8.60298 -0.39093,-37.43854 0.003,-18.84495 0.0748,-35.57323 0.16042,-37.17396 0.0856,-1.60073 0.049,-3.06563 -0.0815,-3.25534 -0.35467,-0.51566 -3.34139,-0.86551 -5.78704,-0.67786 -2.95918,0.22704 -5.58259,-0.26788 -5.97405,-1.12705 -0.33779,-0.74137 0.0676,-2.3875 0.79377,-3.22284 0.42118,-0.48452 0.95261,-0.54914 6.28094,-0.76372 3.20146,-0.12893 6.89239,-0.1974 8.20208,-0.15216 2.33824,0.0808 10.80329,0.31245 11.9724,0.32768 1.03913,0.0135 1.65364,0.90778 1.65364,2.40639 0,1.77732 -0.31821,2.28602 -1.65814,2.65073 -1.36425,0.37133 -7.27867,0.35223 -8.27539,-0.0267 -0.96572,-0.36716 -1.67119,-0.10257 -1.87327,0.70257 -0.0915,0.36458 -0.0761,6.57766 0.0343,13.80685 0.19964,13.0771 0.27686,22.28881 0.2355,28.09293 -0.0119,1.67349 -0.0228,4.94771 -0.024,7.27604 -0.001,2.32833 -0.0357,7.80521 -0.0765,12.17083 -0.0408,4.36563 0.0184,9.79514 0.13159,12.06557 0.26763,5.36896 -0.078,7.87066 -1.28402,9.2941 l -0.83603,0.98675 -1.11429,-0.56874 z m -57.87093,-0.50693 c -0.3804,-0.45208 -0.95062,-1.70224 -1.26715,-2.77813 -0.31653,-1.07589 -0.66923,-1.95616 -0.78377,-1.95616 -0.11454,0 -0.49166,0.44649 -0.83805,0.99219 -1.62538,2.56069 -4.00238,3.88426 -6.64,3.69732 -2.45516,-0.17401 -4.84909,-1.3569 -6.36195,-3.14356 -3.8055,-4.49423 -6.18966,-21.78845 -4.63573,-33.62668 0.14804,-1.12778 0.38205,-2.91372 0.52003,-3.96875 0.26414,-2.01977 2.36196,-8.77415 3.60843,-11.61818 1.25834,-2.87106 2.74575,-4.92399 4.34279,-5.9939 1.33152,-0.89203 1.61263,-0.9749 3.30729,-0.9749 3.45531,0 5.00211,1.25341 7.27472,5.8949 0.8905,1.81872 1.19754,2.2157 1.80813,2.33782 0.40452,0.0809 1.19479,0.5327 1.75616,1.004 1.20842,1.01453 1.19944,0.91356 0.77836,8.75495 -0.43225,8.04944 -0.16059,28.10234 0.44076,32.53515 0.15729,1.15944 0.45535,2.51343 0.66236,3.00887 0.60847,1.45626 0.48824,3.61007 -0.26325,4.71598 -0.65312,0.96116 -1.99117,1.94104 -2.65053,1.94104 -0.20183,0 -0.6782,-0.36988 -1.0586,-0.82196 z m -7.1937,-4.4114 c 0.78423,-1.52864 1.32273,-3.43994 2.02915,-7.20205 0.93388,-4.97344 1.10783,-6.5267 1.3186,-11.77396 0.1286,-3.20146 0.3576,-6.95193 0.50889,-8.33438 0.1513,-1.38245 0.38736,-4.7162 0.52458,-7.40833 0.13723,-2.69214 0.32626,-5.25679 0.42006,-5.69923 0.14374,-0.67794 -0.0153,-1.0524 -1.01153,-2.38125 -0.65015,-0.86725 -1.89595,-3.08278 -2.76845,-4.92341 -1.81159,-3.82173 -2.51036,-4.55775 -3.63036,-3.8239 -1.25864,0.82469 -2.15356,2.91234 -3.41407,7.96425 -1.47271,5.90231 -1.58781,7.1933 -1.59232,17.85937 -0.004,8.43565 0.066,10.27857 0.46462,12.30313 0.39319,1.99714 0.89403,4.91784 1.63989,9.56327 0.12621,0.78603 0.71954,1.71521 2.40025,3.75888 1.26035,1.53253 2.35688,1.56694 3.11069,0.0976 z m 133.35787,4.76446 c -0.57541,-0.47447 -1.56784,-2.73216 -1.85827,-4.22745 -0.0919,-0.47294 -0.2631,-0.8599 -0.38052,-0.8599 -0.11743,0 -0.47864,0.38696 -0.80267,0.8599 -1.12615,1.64364 -2.23322,2.63542 -3.64697,3.26717 -1.64046,0.73306 -3.77626,0.84068 -5.11749,0.25787 -0.47786,-0.20766 -1.04746,-0.45045 -1.26574,-0.53954 -2.51761,-1.02756 -4.14369,-3.12618 -5.37773,-6.94052 -3.37242,-10.42374 -3.73441,-27.35191 -0.79381,-37.12154 2.71839,-9.03138 4.58478,-12.34388 7.88289,-13.99055 1.05651,-0.52749 1.52218,-0.60603 2.8832,-0.4863 3.13396,0.27571 4.53244,1.50743 6.75788,5.95205 0.924,1.84543 1.21785,2.215 1.86378,2.34418 0.42174,0.0844 1.21086,0.5601 1.75357,1.05721 l 0.98677,0.90385 -0.20077,3.89572 c -0.35708,6.92875 -0.42743,20.64867 -0.14274,27.8405 0.29459,7.44146 0.61605,10.53359 1.21581,11.69468 0.20299,0.39295 0.36907,1.38596 0.36907,2.20668 0,1.19941 -0.14018,1.68724 -0.7144,2.48609 -0.69922,0.97274 -1.93286,1.87462 -2.54818,1.86292 -0.17012,-0.003 -0.55877,-0.2116 -0.86368,-0.46302 z m -7.21426,-5.3044 c 0.61897,-1.44335 1.61565,-5.41019 2.07275,-8.24961 0.17568,-1.09141 0.4369,-2.57969 0.58049,-3.3073 0.14357,-0.7276 0.36751,-4.00182 0.49763,-7.27604 0.13012,-3.27422 0.35957,-7.08422 0.50991,-8.46666 0.25775,-2.37034 0.84232,-11.83826 0.81452,-13.19212 -0.007,-0.34342 -0.56415,-1.35546 -1.23799,-2.24896 -0.67384,-0.8935 -1.34403,-1.96186 -1.48931,-2.37413 -0.71882,-2.03982 -2.60792,-5.47533 -3.23763,-5.88794 -0.66154,-0.43345 -0.7271,-0.43071 -1.40634,0.0587 -1.13451,0.81747 -2.3024,3.55694 -3.30128,7.7436 -1.33284,5.58649 -1.50075,6.89991 -1.74125,13.6206 -0.29176,8.15209 0.0169,13.90675 1.03071,19.21356 0.12509,0.65484 0.41788,2.44078 0.65061,3.96875 0.55517,3.64479 0.63669,3.86903 2.15064,5.91522 1.96289,2.65297 3.11753,2.78858 4.10654,0.48231 z M 5.9300295,233.76409 c -1.2337357,-0.27133 -1.3927796,-0.44074 -1.8129647,-1.9312 -0.6584315,-2.33555 -0.6382329,-13.86238 0.1060328,-60.50997 0.3570745,-22.38001 0.7898839,-29.32425 1.8897095,-30.31958 0.4836366,-0.43768 0.5367361,-0.43148 1.137403,0.13281 1.0716929,1.00681 2.2741093,4.26155 2.2793338,6.1698 0.00249,0.91282 0.2261459,2.67171 0.4969921,3.90864 0.270847,1.23692 0.690698,3.20145 0.933001,4.36562 0.242304,1.16417 0.552142,2.65245 0.688529,3.30729 0.345818,1.6604 1.546614,6.82117 1.846882,7.9375 0.136995,0.50933 0.44408,1.81901 0.682411,2.91042 0.238331,1.09141 0.732822,3.175 1.098869,4.63021 0.366047,1.45521 0.754207,3.12208 0.862576,3.70416 0.10837,0.58209 0.682979,3.20146 1.276908,5.82084 0.593929,2.61937 1.37947,6.25078 1.745647,8.06979 0.366176,1.81901 0.900277,4.20026 1.186891,5.29167 0.607178,2.31209 1.39622,6.0183 1.999684,9.3927 0.71789,4.01425 1.622764,8.05161 1.857084,8.28593 0.322145,0.32214 0.652091,-0.44259 0.949409,-2.20051 0.172285,-1.01865 0.402828,-2.32833 0.512318,-2.91042 0.109487,-0.58208 0.453096,-2.60614 0.763574,-4.49791 0.523454,-3.18946 0.677196,-4.05036 1.370256,-7.67292 0.139205,-0.7276 0.555979,-2.93026 0.926168,-4.89479 0.37019,-1.96453 0.860042,-4.46484 1.088562,-5.55625 0.686181,-3.27721 0.85643,-4.26732 1.114621,-6.48229 0.216752,-1.8595 0.501822,-3.2743 1.613427,-8.00744 0.145738,-0.62056 0.26498,-1.38601 0.26498,-1.70101 0,-0.315 0.115969,-0.93837 0.257709,-1.38527 0.14174,-0.44689 0.687332,-3.07472 1.21243,-5.83962 0.525097,-2.76489 1.186431,-6.17409 1.46963,-7.57599 0.2832,-1.4019 0.625973,-3.78315 0.761715,-5.29167 0.318431,-3.53869 1.289568,-6.89108 2.292434,-7.91352 1.336405,-1.3625 1.916819,-0.95477 3.406045,2.39264 l 0.765114,1.71979 0.197144,15.21355 c 0.108429,8.36744 0.261236,23.72651 0.339569,34.13125 0.07834,10.40474 0.173027,22.07286 0.210423,25.92916 0.0374,3.8563 -0.03185,7.48771 -0.153892,8.06979 -0.142354,0.67898 -0.498954,1.27973 -0.994839,1.67597 l -0.772951,0.61763 -1.158973,-0.56105 c -1.004411,-0.48623 -1.199057,-0.72025 -1.459566,-1.75481 -0.747794,-2.96977 -0.92356,-10.83424 -1.035796,-46.34596 C 38.120036,176.34008 38.004837,170 37.888529,170 c -0.451406,0 -2.072397,7.437 -2.710469,12.43542 -0.120745,0.94588 -0.465288,3.02948 -0.765648,4.63021 -0.300361,1.60073 -0.664837,3.56526 -0.809948,4.36562 -0.504621,2.78325 -1.84571,9.66887 -2.241637,11.50938 -0.219131,1.01864 -0.576517,2.86411 -0.794192,4.10104 -0.217676,1.23693 -0.573752,3.07043 -0.791284,4.07445 -0.217533,1.00401 -0.577652,2.96855 -0.800264,4.36562 -0.222615,1.39708 -0.518147,3.13545 -0.656744,3.86305 -0.138594,0.72761 -0.313568,1.68011 -0.388829,2.11667 -0.07526,0.43656 -0.377536,1.91315 -0.671719,3.28131 -0.294185,1.36815 -0.534879,2.77188 -0.534879,3.11939 0,0.74074 -0.839004,2.4806 -1.434546,2.97486 -1.051919,0.87302 -2.705734,-1.5453 -2.611916,-3.81931 0.03002,-0.7276 -0.244617,-2.6326 -0.610299,-4.23333 -0.841666,-3.68429 -1.064231,-4.68028 -1.448548,-6.48229 -0.170695,-0.80037 -0.408274,-1.75287 -0.527954,-2.11667 -0.11968,-0.3638 -0.403677,-1.67349 -0.631106,-2.91042 -0.78245,-4.25555 -0.906948,-4.90286 -1.475736,-7.67291 -0.313746,-1.52797 -0.847039,-3.84969 -1.185096,-5.15938 -0.693211,-2.6856 -1.283769,-5.24502 -2.014646,-8.73125 -0.274572,-1.30969 -0.680471,-3.15516 -0.901999,-4.10104 -0.221527,-0.94589 -0.502115,-2.25557 -0.623527,-2.91042 -0.185185,-0.9988 -1.113455,-5.18857 -2.139636,-9.65729 -0.133667,-0.58208 -0.378556,-1.71318 -0.544196,-2.51354 -0.43182,-2.08652 -0.528278,-2.38125 -0.7793311,-2.38125 -0.1232702,0 -0.2950115,6.16148 -0.3816477,13.69219 -0.2140191,18.60323 -0.3619013,26.99526 -0.6189361,35.12343 -0.123906,3.91826 -0.1166686,7.50552 0.016814,8.33438 0.2678826,1.66341 0.077555,5.47663 -0.3466378,6.94489 -0.3455263,1.19597 -1.3288399,1.78631 -2.5339439,1.52128 z m 118.2863005,-0.0865 c -3.11822,-1.02754 -4.25817,-2.71646 -5.28417,-7.82885 -1.1401,-5.68095 -1.4396,-8.65532 -1.4808,-14.70605 -0.0285,-4.18056 0.33427,-19.56916 0.69228,-29.36875 0.0985,-2.69604 0.0568,-4.37745 -0.11472,-4.63021 -0.20131,-0.2966 -1.02397,-0.43487 -3.25592,-0.54727 -3.54052,-0.1783 -4.70633,-0.62192 -4.70633,-1.79088 0,-0.40539 0.23245,-0.98658 0.51657,-1.29154 0.47814,-0.51322 0.77536,-0.55139 3.99488,-0.51291 2.85231,0.0341 3.51591,-0.0299 3.68719,-0.35531 0.11489,-0.21829 0.34321,-3.07579 0.50739,-6.35 0.96909,-19.32671 1.30034,-22.225 2.54013,-22.225 0.50342,0 1.3484,1.78223 1.71446,3.61612 0.14038,0.70327 0.46659,1.93351 0.72491,2.73388 0.41767,1.29407 0.46967,2.62366 0.46967,12.00768 v 10.5525 l 0.66146,0.25313 c 0.3638,0.13922 1.48502,0.19735 2.49159,0.12917 1.66707,-0.11292 1.88685,-0.0672 2.4668,0.5127 0.51471,0.51472 0.60287,0.79998 0.46023,1.48919 -0.27605,1.33388 -0.71958,1.51398 -3.72837,1.51398 h -2.70654 l -0.13811,0.7276 c -0.24822,1.30771 -0.54596,18.00125 -0.47071,26.39219 0.0972,10.84227 0.23297,14.85038 0.53667,15.84626 0.13796,0.45237 0.32531,1.71546 0.41633,2.80687 0.22302,2.67391 0.66314,4.93572 1.21281,6.23257 0.3772,0.88995 0.64422,1.12993 1.56386,1.40545 1.30326,0.39047 1.73649,0.16032 2.00573,-1.06553 0.233,-1.06086 1.60327,-1.71883 2.29086,-1.10001 1.11562,1.00405 0.77559,3.40385 -0.68255,4.81713 -0.85334,0.82709 -1.03499,0.8844 -3.11396,0.98241 -1.39511,0.0658 -2.59937,-0.025 -3.27164,-0.2465 z m 50.88989,-0.16138 c -1.65003,-0.52407 -3.44654,-2.5779 -4.00988,-4.58422 -0.43522,-1.55006 -1.05845,-7.37536 -1.49275,-13.95284 -0.15854,-2.40109 -0.40867,-5.74705 -0.55584,-7.43545 -0.32222,-3.69664 -0.30504,-18.65298 0.0323,-28.15101 0.46313,-13.03827 0.82084,-20.90904 1.0642,-23.41562 0.99344,-10.23244 1.21634,-11.1125 2.81463,-11.1125 0.44701,0 1.07044,0.39306 1.83318,1.15581 l 1.15581,1.15581 -0.005,2.48221 c -0.003,1.36521 -0.12786,3.6133 -0.27852,4.99575 -0.7432,6.81948 -1.35705,50.51365 -0.762,54.23958 0.1743,1.09141 0.3557,2.99641 0.4031,4.23334 0.15072,3.93271 0.61747,9.30202 1.05801,12.17083 0.23463,1.52797 0.48765,3.22461 0.56225,3.77031 0.1594,1.16594 0.5324,1.29596 0.75903,0.26458 0.48098,-2.18887 1.52114,-3.7527 2.49604,-3.7527 0.21828,0 0.69453,0.24782 1.05833,0.55072 0.57835,0.48153 0.65932,0.75469 0.64441,2.17401 -0.0217,2.05949 -0.70145,3.49431 -2.09962,4.43148 -1.16343,0.77983 -3.46851,1.16412 -4.67815,0.77991 z m 15.05444,-0.0824 c -0.63044,-0.47337 -1.19003,-2.26071 -1.49369,-4.77096 -0.524,-4.33164 -0.88482,-11.35587 -0.71302,-13.88046 0.0966,-1.41977 0.0633,-4.54593 -0.0741,-6.94702 -0.15479,-2.70562 -0.15787,-8.23896 -0.008,-14.55208 0.35992,-15.17178 0.6193,-17.21384 2.23811,-17.62013 0.80182,-0.20124 1.67696,0.32788 2.64806,1.60106 l 0.70565,0.92516 0.11037,22.42977 c 0.0931,18.92085 0.17627,22.82183 0.53162,24.93598 0.2938,1.74796 0.36583,3.1416 0.23806,4.60628 -0.15932,1.82649 -0.28109,2.19797 -0.93472,2.85159 -0.82828,0.82829 -2.42931,1.0357 -3.24824,0.42081 z M 61.224334,232.8406 c -1.310592,-0.4137 -2.877614,-1.38115 -3.910793,-2.41446 -2.827478,-2.82783 -4.505264,-13.88457 -4.471863,-29.46989 0.01699,-7.92526 0.27968,-10.16953 1.913022,-16.34352 2.165535,-8.18567 5.723766,-11.74633 10.861966,-10.86941 3.049706,0.52049 4.82533,1.87078 5.520092,4.1978 0.194916,0.65285 0.575992,1.72279 0.846833,2.37763 0.604647,1.46193 1.215499,5.29087 1.43515,8.99584 0.219097,3.69555 -0.294081,13.27222 -0.772572,14.41741 -0.365445,0.87463 -1.214104,1.3844 -1.751658,1.05217 -0.489871,-0.30276 -11.695049,-0.13277 -12.075761,0.18319 -0.419872,0.34847 -0.457142,3.04873 -0.08681,6.28972 0.142465,1.24678 0.380008,3.41334 0.527875,4.81457 0.361643,3.42698 1.096203,6.97453 2.133719,10.30478 1.067451,3.42634 1.456762,4.21316 2.084647,4.21316 0.845577,0 3.005423,-2.23508 4.387445,-4.54028 0.727604,-1.21363 1.776712,-2.6416 2.331352,-3.17328 0.976144,-0.93572 1.01531,-0.94843 1.223063,-0.39687 0.825664,2.19201 0.468358,3.77152 -1.553937,6.86937 -1.355918,2.07706 -2.492994,2.96651 -4.514019,3.53099 -1.484239,0.41455 -2.72831,0.40282 -4.127749,-0.0389 z m 7.050222,-31.90386 c 0.126503,-0.20468 0.17489,-1.44488 0.107532,-2.756 -0.661424,-12.87461 -0.751424,-13.58473 -2.247074,-17.7297 -1.030256,-2.8552 -1.635845,-3.62836 -2.755657,-3.51818 -0.630184,0.062 -0.929026,0.31546 -1.416015,1.20091 -0.718812,1.30695 -2.240661,7.39884 -2.660947,10.65165 -0.159819,1.23693 -0.414263,3.1929 -0.565433,4.34661 -0.151167,1.1537 -0.351105,3.34395 -0.444307,4.86721 -0.140827,2.30161 -0.101957,2.81893 0.230042,3.06173 0.636792,0.46569 9.456709,0.35334 9.751859,-0.12423 z M 243.52225,232.8406 c -1.3657,-0.43109 -2.90518,-1.39816 -3.98106,-2.50081 -2.76376,-2.83254 -4.42907,-13.9536 -4.40003,-29.38354 0.0111,-5.89458 0.10164,-7.51721 0.5684,-10.18646 1.86605,-10.67133 4.60089,-15.76179 9.1094,-16.95566 2.48647,-0.65843 6.18805,0.33748 7.54505,2.02998 0.33713,0.42049 0.97363,1.74813 1.41444,2.95031 1.73913,4.74302 2.29669,10.53997 1.82496,18.974 -0.33496,5.98867 -0.64416,7.06548 -2.00029,6.96616 -0.43656,-0.032 -3.34898,-0.0554 -6.47203,-0.0522 -3.96071,0.004 -5.79189,0.10026 -6.05385,0.31766 -0.29988,0.24888 -0.34437,0.87253 -0.22079,3.09487 0.20598,3.70422 0.8716,10.18185 1.19763,11.65506 0.1439,0.65025 0.3922,1.83713 0.55176,2.63749 0.38123,1.91224 1.96093,6.87422 2.42512,7.61751 0.20079,0.32151 0.5578,0.58458 0.79335,0.58458 0.80477,0 2.82643,-2.10988 4.31207,-4.50024 1.29158,-2.07813 2.86643,-3.93429 3.35872,-3.95868 0.20701,-0.0103 0.76948,1.88667 0.76948,2.59509 0,1.61456 -2.83302,6.23441 -4.41861,7.20549 -2.00085,1.22541 -4.28286,1.55356 -6.32372,0.90935 z m 6.98523,-31.71934 c 0.21304,-0.13166 0.26308,-1.07381 0.16747,-3.15295 -0.3308,-7.19343 -0.70004,-12.05201 -1.02867,-13.53547 -0.521,-2.35185 -1.99182,-6.27354 -2.60972,-6.95836 -0.81693,-0.9054 -1.87184,-0.78526 -2.53563,0.28878 -1.59346,2.57826 -3.35161,11.70432 -3.90219,20.25519 -0.14745,2.29009 -0.11026,2.79963 0.22213,3.0427 0.44441,0.32501 9.17039,0.37915 9.68661,0.0601 z m -61.6533,-35.50196 c -1.27662,-1.23998 -1.6337,-2.39206 -1.64889,-5.32001 -0.0115,-2.2107 0.044,-2.48504 0.62885,-3.10885 0.35279,-0.3763 0.8547,-0.68419 1.11536,-0.68419 0.26065,0 0.83932,-0.35718 1.28591,-0.79375 0.96246,-0.94082 0.94892,-0.93913 2.06645,-0.2578 1.03939,0.6337 1.60191,1.84956 1.98087,4.28155 0.23455,1.50528 0.20236,2.0276 -0.21203,3.43958 -0.5737,1.95483 -0.81272,2.32626 -1.49697,2.32626 -0.27902,0 -0.97408,0.23812 -1.54457,0.52916 -0.57049,0.29104 -1.07523,0.52917 -1.12165,0.52917 -0.0464,0 -0.52042,-0.4235 -1.05333,-0.94112 z"
       id="path937"
       inkscape:connector-curvature="0"
       sodipodi:nodetypes="ccsccccccscssccsccsscccccccsccccccccccsccsscccccscscccssscsscccsssccscscsscccccccssccccsccccscccccsscccccsccsccccccsccscccccccccccssccccsccsscsscscscscssccscssccscssccccccsscsscscscccsccscssscsccssssssscccscccsscccssccscssccscccccccccccccccssccscccccccccscccccccccccccssccccccsscccccscccsscccsccccssccscscccccscccscccccccsccscccccccccccccccsccccsssc" />
  </g>
</svg>
