<?xml version="1.0" encoding="UTF-8" standalone="no"?>
<svg
   xmlns="http://www.w3.org/2000/svg"
   viewBox="0 0 450 150"
   height="150"
   width="450"
   id="svg66"
   version="1.1">
  <defs
     id="defs70" />
  <path
     id="path3767"
     d="m 336.4237,55.412013 c -1.27232,-1.571858 -2.17446,-4.82059 -2.03208,-7.317817 0.15436,-2.707439 0.94691,-2.194094 1.82869,1.184467 1.51528,5.805809 2.48533,6.734747 3.9448,3.77761 0.68803,-1.394055 0.81654,-2.29994 0.81654,-5.756071 0,-4.814428 -0.6903,-7.982434 -2.49757,-11.462222 -2.7936,-5.378888 -3.71452,-9.65312 -3.29672,-15.300927 0.34427,-4.653872 1.85567,-7.615948 3.88602,-7.615948 1.1608,0 1.67629,0.387826 2.3619,1.776977 0.82759,1.676846 1.21671,4.96328 0.58766,4.96328 -0.15915,0 -0.77743,-1.213246 -1.37395,-2.696102 -1.2568,-3.124153 -1.91051,-3.347766 -2.98872,-1.022342 -0.622,1.341506 -0.78132,2.459054 -0.80258,5.62972 -0.0296,4.407666 0.44734,6.216269 3.50727,13.301271 2.12822,4.927692 2.64843,7.097728 2.66378,11.111758 0.0302,7.89048 -3.62538,13.107478 -6.60504,9.426346 z m 38.22887,0.268809 c -1.49787,-2.125747 -1.89508,-4.800341 -1.89854,-12.783565 -0.003,-6.65841 0.0854,-7.781308 0.84818,-10.784411 1.0085,-3.97073 1.99151,-5.206887 3.79419,-4.7713 1.36294,0.329329 2.17398,1.786938 2.17398,3.90708 0,1.819987 -0.73875,1.475706 -1.72625,-0.804486 -1.46268,-3.377401 -2.26562,-1.621099 -2.96174,6.478347 -0.21235,2.470679 -0.30835,6.229086 -0.21334,8.352013 0.18093,4.04299 1.30157,10.110226 1.86738,10.110226 0.18155,0 0.66663,-1.213247 1.07795,-2.696103 0.77552,-2.795796 1.50135,-3.450447 1.84045,-1.659961 0.25324,1.337101 -0.75646,3.617414 -2.11923,4.786103 -1.37005,1.174931 -1.77499,1.154715 -2.68303,-0.133943 z m 10.71185,0.310404 c -1.71189,-0.979254 -1.96551,-2.944173 -1.99222,-15.435066 -0.0224,-10.447809 -0.0626,-11.133221 -0.66532,-11.316174 -2.54513,-0.772614 -2.98673,-2.164341 -0.68676,-2.164341 h 1.45176 l 0.21155,-3.12719 c 0.11635,-1.719954 0.21384,-4.373931 0.21664,-5.897725 0.003,-1.523794 0.14627,-3.222966 0.31881,-3.775939 0.64849,-2.078286 1.16119,0.581943 1.33535,6.928611 l 0.17038,6.209256 1.08115,0.211212 c 1.42874,0.279114 1.39503,1.473852 -0.0416,1.473852 -0.99133,0 -1.14706,0.246519 -1.33064,2.106331 -0.34621,3.507402 -0.23308,16.640944 0.17137,19.895453 0.41112,3.308065 1.02723,4.260392 1.97799,3.057346 0.42508,-0.537875 0.67127,-0.552091 0.82513,-0.04765 0.49717,1.629897 -1.41613,2.812986 -3.04361,1.88202 z m -37.72954,-0.753924 c -1.26786,-1.332804 -2.00044,-5.117076 -2.22199,-11.478187 -0.15474,-4.442631 -0.0696,-6.451304 0.39316,-9.274124 0.81228,-4.95507 1.82979,-6.73532 3.84961,-6.73532 2.45486,0 3.3018,2.421551 3.3018,9.44046 0,5.034763 -0.0452,5.10486 -3.40978,5.285442 l -1.9128,0.102664 0.007,3.201622 c 0.008,3.599671 1.05171,8.930841 1.74808,8.930841 0.2515,0 0.80885,-0.758279 1.23856,-1.685064 0.85114,-1.835681 1.66331,-2.21581 1.66331,-0.778492 0,2.704282 -3.06018,4.669048 -4.65726,2.990158 z m 3.39923,-15.018155 c 0.26671,-0.752327 0.0361,-4.941558 -0.45116,-8.197212 -0.40756,-2.722908 -1.26985,-3.44563 -1.98275,-1.661822 -0.56032,1.402051 -1.45569,9.133734 -1.16724,10.079392 0.23646,0.775199 3.315,0.586819 3.60115,-0.220358 z m 6.15042,15.014831 c -0.83952,-1.245179 -1.21841,-7.509934 -1.22643,-20.277925 -0.006,-10.15538 0.43756,-19.742083 0.96678,-20.877499 0.13526,-0.290189 0.51118,-0.321373 0.83539,-0.0693 0.5479,0.425995 0.57325,1.413886 0.35957,14.008131 -0.15135,8.919906 -0.10008,15.616267 0.15003,19.597463 0.20897,3.326207 0.43186,6.152855 0.49532,6.28144 0.0635,0.128585 0.42255,-0.154884 0.79798,-0.629929 0.82785,-1.047528 1.32212,-0.271988 0.83372,1.308163 -0.4433,1.43421 -2.41686,1.839357 -3.21236,0.659456 z m 7.71594,0.109399 c -1.47122,-1.152169 -2.29102,-6.151158 -2.29397,-13.98824 -0.002,-5.659841 0.90171,-10.86136 2.18286,-12.562212 0.80836,-1.073169 3.34958,-1.407713 4.00627,-0.527413 1.2709,1.70366 2.06407,11.896558 1.0444,13.421486 -0.22871,0.342031 -1.38886,0.709042 -2.57813,0.815579 -1.18926,0.106536 -2.26116,0.394627 -2.382,0.640201 -0.32901,0.668632 0.25972,7.0958 0.86846,9.480925 0.64507,2.527515 1.15012,2.62068 2.17887,0.401933 0.85113,-1.835681 1.6633,-2.21581 1.6633,-0.778492 0,2.623793 -2.87216,4.519902 -4.69006,3.096233 z m 3.27292,-19.064273 c -0.12537,-3.573606 -0.32598,-4.941528 -0.88961,-6.066232 l -0.72773,-1.452162 -0.62363,1.537612 c -0.64734,1.596084 -1.50235,8.385139 -1.23428,9.800596 0.0924,0.487625 0.84453,0.805699 1.89513,0.801393 l 1.74199,-0.0071 z m 28.6296,16.241012 c -0.16245,-5.717143 0.28036,-37.783327 0.5451,-39.473391 0.41995,-2.68094 0.98426,-1.230245 2.06965,5.320595 2.71298,16.374101 4.78157,27.926152 5.0308,28.094478 0.15057,0.101693 0.81599,-3.687794 1.47871,-8.421083 3.28979,-23.496437 3.82509,-26.402758 4.66845,-25.346674 0.70882,0.887619 0.86384,4.611238 0.92465,22.210807 0.0357,10.337147 0.0471,19.195048 0.0253,19.684225 -0.0233,0.521518 -0.34931,0.800319 -0.7882,0.674025 -0.95697,-0.275378 -1.14449,-3.027062 -1.20526,-17.686189 -0.0245,-5.901801 -0.10997,-10.863215 -0.19,-11.025366 -0.08,-0.16215 -0.3875,1.481824 -0.68328,3.653277 -0.2958,2.171453 -1.13999,8.042802 -1.87601,13.047443 -0.73601,5.004641 -1.41384,9.647392 -1.50629,10.317224 -0.41702,3.021487 -1.21764,0.381274 -2.92418,-9.643199 -0.9782,-5.746069 -2.03779,-11.963956 -2.35465,-13.817527 -0.92204,-5.393867 -1.15299,-5.104689 -1.15299,1.443688 0,3.351956 -0.0981,10.237129 -0.2179,15.300383 -0.2135,9.01996 -0.23331,9.205919 -0.9806,9.205919 -0.68553,0 -0.77287,-0.357998 -0.86325,-3.538635 z m 20.43719,1.884917 c -1.37804,-2.349425 -1.88084,-5.675608 -1.83284,-12.124933 0.0534,-7.177948 0.58304,-10.713313 1.97622,-13.191775 1.32374,-2.354928 2.49273,-2.557549 4.0015,-0.693579 1.36791,1.689956 2.09663,6.408501 2.09663,13.575921 0,8.538849 -1.22161,12.720453 -4.01825,13.754614 -0.98453,0.364064 -1.36939,0.13552 -2.22326,-1.320248 z m 2.98256,-1.547904 c 1.31981,-3.092252 1.6834,-12.334938 0.76596,-19.471609 -0.68527,-5.330687 -1.3811,-6.103954 -2.57561,-2.862247 -1.5488,4.203171 -1.38569,16.585887 0.28975,21.996843 0.56519,1.825292 0.85707,1.890011 1.5199,0.337013 z m 8.19176,1.907204 c -1.50528,-2.399082 -2.05111,-6.495372 -1.87034,-14.03628 0.17917,-7.473913 0.7147,-10.280786 2.35944,-12.36639 1.29203,-1.638366 2.97612,-1.325082 4.07001,0.75713 1.73002,3.293049 2.25816,16.053642 0.88445,21.369388 -1.2794,4.95077 -3.78521,6.919195 -5.44356,4.276152 z m 2.99787,-1.608811 c 0.53656,-1.309951 1.38511,-8.444337 1.37509,-11.561429 -0.0134,-4.179397 -1.12242,-11.879595 -1.82577,-12.677124 -1.95875,-2.221009 -3.25397,10.865138 -1.95714,19.773669 0.76038,5.223386 1.52009,6.632149 2.40782,4.464884 z m 7.13052,1.878676 c -1.08546,-1.540462 -1.56197,-5.408972 -1.57579,-12.792974 -0.0182,-9.720726 0.96603,-13.004602 4.43308,-14.791064 l 1.54221,-0.79465 0.19076,-4.676619 c 0.28757,-7.050321 0.72027,-8.944032 1.56911,-6.867202 0.26642,0.651851 0.64409,35.393291 0.43436,39.956825 -0.0539,1.173186 -5.76382,1.14347 -6.59373,-0.03432 z m 4.06318,-1.663356 c 0.53909,-1.206945 0.58125,-2.377023 0.42503,-11.795272 -0.17745,-10.697955 -0.4021,-12.477848 -1.57486,-12.477848 -2.06617,0 -3.33843,10.811781 -2.28483,19.416781 0.73098,5.970118 2.08321,7.882067 3.43466,4.856339 z"
     style="stroke-width:1" />
  <path
     id="path4576"
     d="m 315.37414,93.64626 c 0,0 70.50387,11.91236 83.23809,-1.55102 12.73422,-13.463377 7.2381,-27.918367 7.2381,-27.918367"
     style="fill:none;stroke-width:1px;stroke-linecap:round;stroke-linejoin:miter;stroke-opacity:1" />
</svg>
